<?xml version="1.0" encoding="utf-8"?>
<!-- Generator: Adobe Illustrator 23.0.1, SVG Export Plug-In . SVG Version: 6.00 Build 0)  -->
<svg version="1.1" id="Layer_1" xmlns="http://www.w3.org/2000/svg" xmlns:xlink="http://www.w3.org/1999/xlink" x="0px" y="0px"
	 viewBox="0 0 1334.9 415.8" style="enable-background:new 0 0 1334.9 415.8;" xml:space="preserve">
<style type="text/css">
	.st0{fill:#C045B6;}
</style>
<g>
	<path class="st0" d="M105.6,7.5C121,2.8,137.1,0.6,153.2,0c7.5,0,15-0.1,22.5,0c18.6,0.7,37.4,3.6,54.9,10.2
		c9,3.6,17.9,8.1,25,14.8c8.4,0.1,16.8,1.5,24.8,4.4c17.2,6.2,31.8,19.1,40,35.5c5.4,10.5,8.1,22.4,7.9,34.2c0,10.1,0,20.1,0,30.2
		c0,23-11.8,45.7-30.7,58.8c-5.5,4-11.7,6.7-17.6,10c-8.1,4.3-16.5,8.6-25.8,9.7c-39.7-0.2-79.5,0-119.2-0.1
		c-20.2,0.1-40.4-0.1-60.6,0.1c-11.8-1.4-22-8.1-32.5-13.2c-10.3-4.9-19.5-12.1-26.5-21.2c-9.2-11.7-14.5-26.2-15.3-41
		c0.2-12.8,0.2-25.5,0-38.3c0.9-17.6,8.3-34.7,20.8-47.2C34.2,33,53.4,25.1,72.7,25.1C81.8,16.3,93.7,11.3,105.6,7.5 M67.9,80.6
		c-9.4,1.9-17.8,8.1-22.4,16.5c-3.9,6.8-5.1,15-3.6,22.7c1.9,9.8,8.4,18.6,17.3,23.1c8.1,4.4,18.2,5,26.8,1.8
		c7.6-2.7,14-8.3,17.9-15.4c4.2-7.6,5.3-17,2.7-25.4c-2.1-7-6.5-13.3-12.4-17.6C86.9,80.8,77,78.6,67.9,80.6 M248.4,80.5
		c-7.3,1.4-14.2,5.4-19.1,11.1c-6.4,7.4-9.4,17.8-7.6,27.5c1.4,8.2,6,15.7,12.6,20.7c7.6,6,17.8,8.3,27.3,6.2
		c7.1-1.5,13.7-5.4,18.4-10.9c6.4-7.3,9.4-17.7,7.6-27.3C286,97.4,279,88,269.5,83.4C263.1,80.1,255.5,79.1,248.4,80.5z"/>
	<path class="st0" d="M27.9,228c15.3-1.7,30.6-4.2,45.9-6.1c6.1-0.5,12.2-0.2,18.2-0.3c12.1,0.1,24.3-0.2,36.5,0.2
		c37.8,0,75.6,0,113.3,0c4.5,0,8.9-0.1,13.4,0.4c16.4,2,32.7,4.5,49.1,6.2c7,1.3,13.4,5.2,17.8,10.8c9.1,11.6,8.3,30.2-2.5,40.5
		c-5.4,5.7-13.2,8.4-20.9,8.8c-12.8,30.6-25.7,61.2-38.5,91.8c-1.9,6-4.8,11.7-9.2,16.3c-6.7,7.2-16.2,12.2-26.1,12.4
		c-37.1-0.3-74.2,0-111.3-0.2c-2.1,0-4.2,0.1-6.3,0.4c-14.7,0.1-28.8-9.2-34.9-22.5c-5.8-14.6-12.4-28.8-18.6-43.2
		c-8-18.4-16.1-36.7-24.1-55.1c-6.6-0.4-13.2-2.3-18.3-6.5c-6.3-4.9-10.4-12.5-11.1-20.4c0-2.5,0-4.9,0-7.4
		C1.3,240.3,13.8,228.4,27.9,228 M106.4,284c-2.7,1.1-4.9,3.9-4.8,6.9c0,17.7,0,35.4,0,53.2c0,4.6,5,8.4,9.5,7.2
		c3.7-0.7,6.3-4.3,6.2-8c0-17.4,0-34.8,0-52.3C117.1,285.8,111.2,281.7,106.4,284 M161.1,284c-3,1.3-5.1,4.4-4.8,7.7
		c0,17.2,0,34.4,0,51.6c-0.2,3.8,2.6,7.3,6.3,8c4.7,1.1,9.8-3.1,9.4-8c0-17.4,0-34.9,0-52.3C171.9,285.7,165.8,281.7,161.1,284
		 M215.8,284c-2.7,1.1-4.8,3.8-4.8,6.8c0,17.5,0,34.9,0,52.4c-0.3,3.7,2.6,7.3,6.2,7.9c4.8,1.2,9.8-3.1,9.5-8c0-17.2,0-34.3,0-51.5
		C227.2,286.3,220.9,281.4,215.8,284z"/>
</g>
<path class="st0" d="M1084.7,15.4c25.3-0.1,50.6-0.1,75.9,0c0.1,40.3,0,80.6,0,120.9c19.4-9,40.7-13.7,61.9-15.4
	c25.3,0.2,52.1,4.3,72.5,20.4c19.6,15.1,29.6,39.1,34.4,62.8c6.7,32.9,6.2,66.7,3.9,100c-2.2,17.4-5.3,34.9-11.8,51.3
	c-9.2,22-26.7,41.5-49.6,49.3c-17.3,7.3-36.1,9.3-54.7,10.6c-44.4,1.9-88.5-3.7-132.7-7.2C1084.7,277.2,1084.6,146.3,1084.7,15.4
	 M1160.1,195.8c0.1,50.1-0.2,100.2,0.2,150.3c10.6,1.8,21.4,1.6,32.1,2.1c10-0.2,20.2,0.2,29.9-2.8c14.5-3.5,26.3-15.3,30.3-29.6
	c7.4-24.4,6.7-50.3,4.4-75.4c-1.3-14.9-6.1-30-16.2-41.4c-7.7-7.1-18.5-10.4-28.9-10.5C1194.4,188.6,1177.1,191.7,1160.1,195.8z"/>
<path class="st0" d="M450.2,26.6c54.8,0,109.7-0.2,164.5,0.1c22.5,2.4,46.2,4.7,65.9,16.9c20.6,12.3,34.1,34.6,37.5,58.2
	c2.7,21,3.1,42.7-2.3,63.3c-5,20.2-19.8,36.5-37.3,47.1c19.1,8.4,36.1,23.3,42.6,43.7c8,25.9,8.5,54.2,1.9,80.5
	c-3.6,11.4-7.8,23-15.4,32.5c-10.9,13.6-25.6,24.5-42,30.6c-21.4,7.6-44.3,10.2-67,10.3c-49.5,0-98.9,0-148.4,0
	C450.1,281.9,450.2,154.3,450.2,26.6 M528.4,93.2c0,30.4,0,60.8,0,91.2c22.8,0,45.7,0.1,68.5,0c10.1-0.5,21.1-1.7,29.4-8
	c9.3-6.7,13.7-18.3,14.4-29.4c0.8-13.5,0.8-28.4-7.8-39.7c-7.9-10.5-21.7-13.9-34.2-14C575.2,93.1,551.8,93.3,528.4,93.2
	 M528.4,249.3c-0.1,31.1,0.2,62.2-0.1,93.2c23.5-0.3,46.9,0,70.3-0.2c10.9-0.3,22.5-0.3,32.2-6.1c8.2-4.5,13.8-12.8,15.6-21.9
	c3.5-16.1,3.3-34.4-6.3-48.4c-10-13.4-27.6-16.5-43.2-16.8C574.1,249.2,551.2,249,528.4,249.3z"/>
<path class="st0" d="M876.7,122.4c34.4-3.3,71.5-1.1,101.5,17.8c27.1,16.6,41.9,47.3,47.9,77.6c5.6,31.2,5.5,63.4,1.1,94.7
	c-4.6,25.4-13.6,51.3-32.1,70c-20.1,22.4-51,30.8-80,32.9c-25.7,1.3-52.2-0.5-76.2-10.6c-24.7-9.9-44-31.1-53.9-55.6
	c-6.9-15.7-9.9-32.6-12.1-49.5c-2.1-13.8-0.9-27.8-1.2-41.7c-0.5-15.5,2.4-30.8,5.2-46c5.6-25.5,18-50.8,39.2-66.8
	C833.6,132,855.1,124.7,876.7,122.4 M885.6,186.8c-12.7,2.7-24.2,11.6-29,23.8c-8.7,21.1-8.5,44.4-8.1,66.9
	c0.1,17.1,2.1,34.6,9.2,50.3c5.5,12.4,17.8,21.1,31.2,22.9c14.4,1.9,30.3,1.3,42.6-7.2c12.1-9,17.2-24.1,19.5-38.4
	c3.3-21.5,3.4-43.4,1.2-65c-1.6-14.2-4.4-29.3-13.9-40.5C925.3,185,903.6,183,885.6,186.8z"/>
</svg>
